<svg width="20" height="20" viewBox="0 0 20 20" fill="none" xmlns="http://www.w3.org/2000/svg">
<g id="android-globe">
<path id="Shape" fill-rule="evenodd" clip-rule="evenodd" d="M9.75 0.5C4.36519 0.5 0 4.86523 0 10.25C0 15.6348 4.36519 20 9.75 20C15.1348 20 19.5 15.6348 19.5 10.25C19.5 4.86523 15.1348 0.5 9.75 0.5ZM8.73962 18.5465C6.88975 18.3249 5.17816 17.4968 3.8403 16.159C2.26183 14.5806 1.39258 12.4819 1.39258 10.2496C1.39258 8.24011 2.09739 6.33914 3.3895 4.82812C3.42278 5.22736 3.50495 5.65538 3.48391 5.96133C3.40703 7.07672 3.29697 7.77478 3.94984 8.7158C4.20419 9.08231 4.26667 9.60773 4.39047 10.032C4.51155 10.447 4.99525 10.6647 5.32886 10.9204C6.00194 11.4364 6.64586 12.0362 7.35958 12.4904C7.83063 12.7902 8.12486 12.9393 7.98691 13.5141C7.87595 13.9764 7.84497 14.2612 7.60581 14.673C7.53283 14.7987 7.8813 15.6067 7.99727 15.7226C8.34873 16.074 8.69748 16.3965 9.08059 16.7129C9.67455 17.2036 9.02289 17.8412 8.73962 18.5465ZM15.6594 16.1591C14.4578 17.3606 12.9547 18.1506 11.3208 18.4597C11.5524 17.8871 11.9647 17.3783 12.3471 17.0834C12.6798 16.8267 13.0965 16.333 13.2702 15.9419C13.4439 15.5513 13.6739 15.2128 13.9067 14.8536C14.2378 14.3427 13.0901 13.5722 12.7182 13.4108C11.8813 13.0474 11.2513 12.5572 10.5076 12.0338C9.97764 11.661 8.90176 12.2285 8.3035 11.9674C7.48408 11.6096 6.80898 10.9879 6.09672 10.4515C5.36172 9.89794 5.39725 9.25261 5.39725 8.436C5.97297 8.45723 6.79197 8.27667 7.17419 8.73966C7.2948 8.88577 7.7095 9.5385 7.98709 9.30656C8.21387 9.11705 7.81905 8.35739 7.74278 8.1788C7.50817 7.62966 8.27734 7.41548 8.67105 7.04311C9.1848 6.5573 10.2868 5.79539 10.1997 5.44716C10.1126 5.09892 9.09705 4.1123 8.50056 4.26623C8.41117 4.2893 7.62414 5.11453 7.47208 5.244C7.47611 4.97466 7.48014 4.70536 7.48426 4.43602C7.48684 4.26595 7.16701 4.09139 7.18187 3.9817C7.21937 3.70448 7.99103 3.20138 8.18298 2.98059C8.0485 2.89655 7.58959 2.50238 7.4507 2.56022C7.11442 2.70038 6.73464 2.79694 6.39836 2.93705C6.39836 2.82042 6.3842 2.71087 6.36733 2.60269C7.0412 2.30433 7.75422 2.09686 8.49123 1.98619L9.15142 2.2515L9.61755 2.80467L10.0827 3.28434L10.4894 3.41536L11.1353 2.80622L10.9687 2.37136V1.98047C12.2461 2.166 13.4523 2.64253 14.5088 3.37734C14.3198 3.39427 14.1121 3.42206 13.8778 3.45187C13.781 3.39469 13.6568 3.36872 13.5513 3.32892C13.8574 3.98714 14.1767 4.63627 14.5012 5.28577C14.8477 5.97956 15.6165 6.72375 15.7515 7.45612C15.9106 8.31938 15.8002 9.1035 15.8872 10.1191C15.971 11.0972 16.9899 12.2085 16.9899 12.2085C16.9899 12.2085 17.4604 12.3687 17.8517 12.3129C17.4869 13.7558 16.7392 15.0792 15.6594 16.1591Z" fill="white"/>
</g>
</svg>
