<svg width="24" height="24" viewBox="0 0 24 24" fill="none" xmlns="http://www.w3.org/2000/svg">
<path d="M19.4772 10.5238L12.0007 19.6644L4.54753 10.5472C4.22543 10.118 4.00244 9.62266 3.89459 9.09693C3.78675 8.5712 3.79672 8.0281 3.92381 7.50668C4.05089 6.98526 4.29192 6.49848 4.62958 6.08133C4.96723 5.66418 5.39311 5.32702 5.87661 5.09409C6.36011 4.86117 6.88921 4.73826 7.42588 4.73421C7.96254 4.73016 8.49344 4.84506 8.9804 5.07066C9.46736 5.29626 9.89828 5.62695 10.2422 6.03896C10.5861 6.45097 10.8345 6.93405 10.9694 7.45349H13.0319C13.1681 6.93691 13.4165 6.45673 13.7595 6.04715C14.1026 5.63758 14.5317 5.30869 15.0163 5.08394C15.501 4.85918 16.0292 4.74408 16.5635 4.74684C17.0977 4.7496 17.6247 4.87015 18.107 5.0999C18.5893 5.32965 19.015 5.66295 19.3538 6.07605C19.6925 6.48914 19.936 6.97187 20.0668 7.48983C20.1977 8.00779 20.2127 8.54823 20.1108 9.07265C20.0089 9.59707 19.7925 10.0926 19.4772 10.5238V10.5238ZM16.5475 2.90662C14.6491 2.90662 12.985 3.89099 12.0007 5.34412C11.6031 4.71806 11.0822 4.17954 10.4697 3.76138C9.85724 3.34323 9.166 3.05422 8.43816 2.91196C7.71032 2.7697 6.96113 2.77718 6.23627 2.93395C5.51142 3.09071 4.82609 3.39348 4.22207 3.82378C3.61806 4.25408 3.10802 4.80289 2.72306 5.43676C2.33809 6.07064 2.08627 6.77628 1.98295 7.51066C1.87962 8.24504 1.92697 8.99277 2.12208 9.70825C2.3172 10.4237 2.65601 11.092 3.11784 11.6722L10.8288 21.0941H13.1725L20.9069 11.6488C21.5096 10.8381 21.8755 9.87605 21.9641 8.86974C22.0527 7.86344 21.8604 6.85228 21.4086 5.94874C20.9568 5.04519 20.2633 4.28466 19.4051 3.75174C18.5469 3.21881 17.5577 2.93437 16.5475 2.93005V2.90662Z" fill="#E0E0E0"/>
</svg>
