<svg width="196" height="50" viewBox="0 0 196 50" fill="none" xmlns="http://www.w3.org/2000/svg">
<path d="M3.76564 37.2953C3.02728 37.2953 2.47351 37.0492 2.10433 36.557C1.75976 36.0647 1.66131 35.3756 1.80899 34.4896L5.16853 13.3355C5.29159 12.5479 5.58694 11.9572 6.05456 11.5634C6.52219 11.1697 7.1498 10.9728 7.93739 10.9728H15.6902C18.5698 10.9728 20.748 11.6127 22.2247 12.8925C23.726 14.1723 24.4767 15.9321 24.4767 18.1718C24.4767 20.0669 24.046 21.6298 23.1845 22.8604C22.3477 24.091 21.1787 25.0139 19.6773 25.6292C18.2006 26.2199 16.5147 26.503 14.6196 26.4783V25.9246H15.5794C16.7362 25.9246 17.6838 26.2568 18.4221 26.9214C19.1605 27.5613 19.7512 28.4596 20.1942 29.6164L21.9663 34.2311C22.2124 34.8711 22.2985 35.4248 22.2247 35.8925C22.1755 36.3355 21.9663 36.68 21.5971 36.9262C21.2279 37.1723 20.711 37.2953 20.0465 37.2953C19.4066 37.2953 18.8897 37.1354 18.496 36.8154C18.1268 36.4708 17.8068 35.9417 17.5361 35.2279L15.1733 29.0257C14.8534 28.1397 14.4227 27.5121 13.8812 27.1429C13.3397 26.7737 12.5768 26.5891 11.5923 26.5891H7.78971L6.49758 34.9326C6.37452 35.7202 6.07918 36.3109 5.61155 36.7047C5.16853 37.0984 4.55323 37.2953 3.76564 37.2953ZM8.34348 23.0819H14.6196C16.2932 23.0819 17.5853 22.7004 18.496 21.9374C19.4312 21.1498 19.8988 20.0177 19.8988 18.541C19.8988 17.2611 19.505 16.3013 18.7175 15.6614C17.9299 15.0214 16.687 14.7015 14.9887 14.7015H9.67254L8.34348 23.0819Z" fill="#FFAE1B"/>
<path d="M35.6461 37.3692C33.8248 37.3692 32.2374 37.0369 30.8837 36.3724C29.5546 35.6833 28.5209 34.7234 27.7826 33.4928C27.0442 32.2622 26.675 30.8224 26.675 29.1734C26.675 27.1552 27.0934 25.3585 27.9303 23.7833C28.7917 22.1835 29.9731 20.916 31.4744 19.9808C32.9757 19.0455 34.6986 18.5779 36.6429 18.5779C38.1443 18.5779 39.3995 18.8363 40.4086 19.3532C41.4177 19.87 42.2175 20.5715 42.8082 21.4575C43.3989 22.3189 43.7927 23.3034 43.9896 24.4109C44.1865 25.5185 44.2234 26.6506 44.1004 27.8074C44.0511 28.3243 43.9158 28.6565 43.6943 28.8042C43.4728 28.9519 43.1651 29.0257 42.7713 29.0257H30.3668L30.736 26.3676H41.0731L40.4455 26.9214C40.5932 25.9369 40.5562 25.0632 40.3347 24.3002C40.1132 23.5126 39.6948 22.885 39.0795 22.4174C38.4888 21.9497 37.6643 21.7159 36.606 21.7159C35.5231 21.7159 34.6124 21.962 33.8741 22.4543C33.1357 22.9465 32.5573 23.5864 32.1389 24.374C31.7205 25.137 31.4375 25.9615 31.2898 26.8475L31.1052 27.992C30.8099 29.7887 31.1052 31.2162 31.9912 32.2745C32.8773 33.3328 34.2309 33.862 36.0522 33.862C36.7906 33.862 37.5536 33.7881 38.3411 33.6405C39.1287 33.4682 39.8425 33.1974 40.4824 32.8283C40.95 32.5575 41.3561 32.4468 41.7007 32.496C42.0699 32.5206 42.3529 32.656 42.5498 32.9021C42.7713 33.1236 42.9067 33.4066 42.9559 33.7512C43.0051 34.0712 42.9436 34.4157 42.7713 34.7849C42.6236 35.1295 42.3529 35.4371 41.9591 35.7079C41.0977 36.2739 40.0763 36.6923 38.8949 36.9631C37.7135 37.2338 36.6306 37.3692 35.6461 37.3692ZM48.5672 37.2584C47.8534 37.2584 47.3243 37.0246 46.9797 36.557C46.6597 36.0647 46.5613 35.4002 46.6843 34.5634L48.8256 20.9406C48.9487 20.1777 49.2317 19.6116 49.6747 19.2424C50.1423 18.8486 50.7453 18.6517 51.4837 18.6517C52.1728 18.6517 52.6774 18.8609 52.9973 19.2793C53.3173 19.6977 53.4157 20.3253 53.2927 21.1621L52.9235 23.5249L52.7758 22.602C53.3911 21.2975 54.2649 20.3007 55.397 19.6116C56.5538 18.9225 57.9074 18.5779 59.458 18.5779C60.787 18.5779 61.8946 18.8486 62.7806 19.3901C63.6913 19.9315 64.3312 20.7684 64.7004 21.9005C65.0942 23.0081 65.1557 24.4355 64.885 26.183L63.519 34.9695C63.4205 35.7325 63.1375 36.3109 62.6699 36.7047C62.2269 37.0738 61.6239 37.2584 60.8609 37.2584C60.1471 37.2584 59.618 37.0246 59.2734 36.557C58.9288 36.0647 58.8181 35.4002 58.9411 34.5634L60.2702 26.2568C60.4917 24.9032 60.3809 23.8941 59.9379 23.2296C59.5195 22.5404 58.7442 22.1959 57.6121 22.1959C56.16 22.1959 54.9909 22.6512 54.1049 23.5618C53.2435 24.4725 52.6897 25.7154 52.4436 27.2905L51.2253 34.9695C51.0038 36.4955 50.1177 37.2584 48.5672 37.2584ZM76.4389 37.3692C74.8391 37.3692 73.5223 37.0738 72.4886 36.4831C71.4549 35.8678 70.7289 35.031 70.3105 33.9727C69.9167 32.9144 69.8305 31.6838 70.052 30.2809L71.3073 22.4174H69.6829C69.0922 22.4174 68.6245 22.2943 68.28 22.0482C67.96 21.7774 67.8 21.4083 67.8 20.9406C67.8 20.3007 68.0092 19.8085 68.4276 19.4639C68.846 19.1193 69.4121 18.9471 70.1259 18.9471H71.861L72.4148 15.4029C72.5379 14.6892 72.8086 14.16 73.227 13.8155C73.6454 13.4463 74.2115 13.2617 74.9252 13.2617C75.7128 13.2617 76.2789 13.4832 76.6235 13.9262C76.968 14.3692 77.0788 14.9968 76.9557 15.809L76.4758 18.9471H80.0938C80.7091 18.9471 81.1767 19.0701 81.4966 19.3162C81.8412 19.5378 82.0135 19.8946 82.0135 20.3869C82.0135 20.9776 81.8166 21.4698 81.4228 21.8636C81.0536 22.2328 80.5368 22.4174 79.8722 22.4174H75.922L74.7037 29.9856C74.5068 31.2654 74.6668 32.1883 75.1836 32.7544C75.7005 33.2959 76.4266 33.5666 77.3618 33.5666C77.8048 33.5666 78.1494 33.5297 78.3955 33.4559C78.6663 33.382 78.9247 33.3451 79.1708 33.3451C79.5154 33.3451 79.7615 33.4436 79.9092 33.6405C80.0814 33.8127 80.1676 34.145 80.1676 34.6372C80.1676 35.4741 80.0322 36.0524 79.7615 36.3724C79.4908 36.6923 79.1216 36.9262 78.6539 37.0738C78.3586 37.1723 78.0017 37.2461 77.5833 37.2953C77.1649 37.3446 76.7834 37.3692 76.4389 37.3692ZM84.7746 37.2953C84.0854 37.2953 83.5563 37.0738 83.1871 36.6308C82.8425 36.1632 82.7318 35.511 82.8548 34.6742L86.362 12.671C86.4851 11.9819 86.7312 11.4773 87.1004 11.1573C87.4942 10.8374 87.9741 10.6774 88.5402 10.6774C89.1555 10.6774 89.6108 10.8005 89.9062 11.0466C90.2261 11.2681 90.5461 11.6373 90.866 12.1541L101.905 30.8716H100.982L103.824 12.8556C103.947 12.1172 104.218 11.5758 104.636 11.2312C105.055 10.862 105.633 10.6774 106.372 10.6774C107.061 10.6774 107.553 10.9112 107.848 11.3789C108.168 11.8219 108.267 12.4495 108.144 13.2617L104.673 35.2279C104.575 35.9171 104.353 36.4339 104.009 36.7785C103.664 37.1231 103.209 37.2953 102.643 37.2953C102.028 37.2953 101.535 37.1723 101.166 36.9262C100.797 36.68 100.452 36.2863 100.132 35.7448L89.094 17.1012H90.0169L87.1742 35.1172C87.0758 35.8555 86.8297 36.4093 86.4359 36.7785C86.0667 37.1231 85.5129 37.2953 84.7746 37.2953ZM115.788 37.3692C114.681 37.3692 113.672 37.1231 112.761 36.6308C111.85 36.114 111.112 35.4371 110.546 34.6003C110.005 33.7635 109.734 32.8283 109.734 31.7946C109.734 30.5147 110.091 29.481 110.804 28.6934C111.518 27.8812 112.626 27.2782 114.127 26.8844C115.628 26.4907 117.548 26.2938 119.886 26.2938H122.84L122.434 28.9519H120.108C118.656 28.9519 117.499 29.0257 116.637 29.1734C115.776 29.321 115.161 29.5795 114.792 29.9486C114.422 30.3178 114.238 30.8347 114.238 31.4992C114.238 32.3606 114.521 33.0252 115.087 33.4928C115.678 33.9604 116.391 34.1942 117.228 34.1942C118.016 34.1942 118.729 34.0342 119.369 33.7143C120.009 33.3697 120.551 32.8898 120.994 32.2745C121.437 31.6346 121.72 30.8839 121.843 30.0225L122.544 25.6292C122.741 24.4725 122.557 23.5864 121.991 22.9711C121.449 22.3558 120.489 22.0482 119.111 22.0482C118.299 22.0482 117.511 22.1343 116.748 22.3066C115.985 22.4543 115.198 22.7127 114.385 23.0819C113.918 23.2788 113.499 23.3403 113.13 23.2665C112.761 23.1926 112.453 23.0327 112.207 22.7865C111.986 22.5158 111.863 22.2082 111.838 21.8636C111.813 21.4944 111.912 21.1375 112.133 20.793C112.38 20.4484 112.773 20.1531 113.315 19.9069C114.349 19.4393 115.419 19.107 116.527 18.9101C117.659 18.6886 118.717 18.5779 119.702 18.5779C121.646 18.5779 123.172 18.9348 124.279 19.6485C125.387 20.3623 126.138 21.3344 126.532 22.565C126.925 23.7956 126.999 25.1985 126.753 26.7737L125.461 35.0064C125.362 35.7694 125.092 36.3478 124.649 36.7416C124.23 37.1108 123.664 37.2953 122.95 37.2953C122.286 37.2953 121.781 37.0861 121.437 36.6677C121.117 36.2247 121.018 35.5848 121.141 34.748L121.511 32.4222L121.769 33.1605C121.425 34.1204 120.932 34.9203 120.292 35.5602C119.677 36.1755 118.976 36.6308 118.188 36.9262C117.425 37.2215 116.625 37.3692 115.788 37.3692ZM138.378 37.3692C136.778 37.3692 135.461 37.0738 134.427 36.4831C133.394 35.8678 132.668 35.031 132.249 33.9727C131.855 32.9144 131.769 31.6838 131.991 30.2809L133.246 22.4174H131.622C131.031 22.4174 130.563 22.2943 130.219 22.0482C129.899 21.7774 129.739 21.4083 129.739 20.9406C129.739 20.3007 129.948 19.8085 130.366 19.4639C130.785 19.1193 131.351 18.9471 132.065 18.9471H133.8L134.354 15.4029C134.477 14.6892 134.747 14.16 135.166 13.8155C135.584 13.4463 136.15 13.2617 136.864 13.2617C137.652 13.2617 138.218 13.4832 138.562 13.9262C138.907 14.3692 139.017 14.9968 138.894 15.809L138.415 18.9471H142.032C142.648 18.9471 143.115 19.0701 143.435 19.3162C143.78 19.5378 143.952 19.8946 143.952 20.3869C143.952 20.9776 143.755 21.4698 143.362 21.8636C142.992 22.2328 142.475 22.4174 141.811 22.4174H137.861L136.642 29.9856C136.446 31.2654 136.606 32.1883 137.122 32.7544C137.639 33.2959 138.365 33.5666 139.301 33.5666C139.744 33.5666 140.088 33.5297 140.334 33.4559C140.605 33.382 140.863 33.3451 141.11 33.3451C141.454 33.3451 141.7 33.4436 141.848 33.6405C142.02 33.8127 142.106 34.145 142.106 34.6372C142.106 35.4741 141.971 36.0524 141.7 36.3724C141.429 36.6923 141.06 36.9262 140.593 37.0738C140.297 37.1723 139.94 37.2461 139.522 37.2953C139.104 37.3446 138.722 37.3692 138.378 37.3692ZM146.702 37.2953C145.988 37.2953 145.459 37.0615 145.115 36.5939C144.795 36.1017 144.696 35.4371 144.819 34.6003L146.997 20.9406C147.12 20.1777 147.403 19.6116 147.846 19.2424C148.29 18.8486 148.893 18.6517 149.655 18.6517C150.369 18.6517 150.886 18.8855 151.206 19.3532C151.551 19.8208 151.661 20.4853 151.538 21.3467L149.36 35.0064C149.237 35.7694 148.954 36.3478 148.511 36.7416C148.093 37.1108 147.49 37.2953 146.702 37.2953ZM150.246 15.2553C149.409 15.2553 148.782 15.0584 148.363 14.6646C147.97 14.2462 147.81 13.6678 147.883 12.9294C147.982 12.0926 148.302 11.465 148.843 11.0466C149.385 10.6036 150.111 10.3821 151.021 10.3821C151.858 10.3821 152.486 10.5913 152.904 11.0097C153.323 11.4035 153.483 11.9695 153.384 12.7079C153.286 13.5447 152.966 14.1846 152.424 14.6276C151.907 15.0461 151.181 15.2553 150.246 15.2553ZM162.757 37.3692C160.985 37.3692 159.459 37.0369 158.179 36.3724C156.924 35.7079 155.952 34.7603 155.263 33.5297C154.598 32.2991 154.266 30.8593 154.266 29.2103C154.266 27.5859 154.524 26.1215 155.041 24.817C155.558 23.5126 156.272 22.3927 157.182 21.4575C158.118 20.5222 159.188 19.8085 160.394 19.3162C161.6 18.824 162.905 18.5779 164.308 18.5779C166.08 18.5779 167.593 18.9101 168.849 19.5747C170.128 20.2392 171.101 21.1868 171.765 22.4174C172.454 23.6234 172.799 25.0632 172.799 26.7368C172.799 28.3612 172.54 29.8256 172.024 31.13C171.507 32.4345 170.781 33.5543 169.845 34.4896C168.935 35.4248 167.876 36.1386 166.67 36.6308C165.464 37.1231 164.16 37.3692 162.757 37.3692ZM162.868 33.862C164 33.862 164.948 33.542 165.711 32.9021C166.498 32.2622 167.101 31.3885 167.52 30.2809C167.938 29.1734 168.147 27.9428 168.147 26.5891C168.147 25.137 167.79 24.0295 167.076 23.2665C166.387 22.4789 165.427 22.0851 164.197 22.0851C163.089 22.0851 162.142 22.4051 161.354 23.045C160.567 23.6849 159.964 24.5586 159.545 25.6662C159.127 26.7491 158.918 27.9797 158.918 29.358C158.918 30.8101 159.262 31.9299 159.951 32.7175C160.665 33.4805 161.637 33.862 162.868 33.862ZM177.42 37.2584C176.706 37.2584 176.177 37.0246 175.832 36.557C175.512 36.0647 175.414 35.4002 175.537 34.5634L177.678 20.9406C177.801 20.1777 178.084 19.6116 178.527 19.2424C178.995 18.8486 179.598 18.6517 180.336 18.6517C181.026 18.6517 181.53 18.8609 181.85 19.2793C182.17 19.6977 182.268 20.3253 182.145 21.1621L181.776 23.5249L181.629 22.602C182.244 21.2975 183.118 20.3007 184.25 19.6116C185.406 18.9225 186.76 18.5779 188.311 18.5779C189.64 18.5779 190.747 18.8486 191.633 19.3901C192.544 19.9315 193.184 20.7684 193.553 21.9005C193.947 23.0081 194.008 24.4355 193.738 26.183L192.372 34.9695C192.273 35.7325 191.99 36.3109 191.523 36.7047C191.08 37.0738 190.477 37.2584 189.714 37.2584C189 37.2584 188.471 37.0246 188.126 36.557C187.782 36.0647 187.671 35.4002 187.794 34.5634L189.123 26.2568C189.344 24.9032 189.234 23.8941 188.791 23.2296C188.372 22.5404 187.597 22.1959 186.465 22.1959C185.013 22.1959 183.844 22.6512 182.958 23.5618C182.096 24.4725 181.542 25.7154 181.296 27.2905L180.078 34.9695C179.856 36.4955 178.97 37.2584 177.42 37.2584Z" fill="white"/>
<path d="M84.0918 43.071L192.795 43.0711" stroke="#FFAE1B" stroke-width="2.051" stroke-linecap="round"/>
<path d="M84.0918 43.071L192.795 43.0711" stroke="#FFAE1B" stroke-width="2.051" stroke-linecap="round"/>
<path d="M84.0918 43.071L192.795 43.0711" stroke="#FFAE1B" stroke-width="2.051" stroke-linecap="round"/>
</svg>
