<svg width="24" height="26" viewBox="0 0 24 26" fill="none" xmlns="http://www.w3.org/2000/svg">
<path fill-rule="evenodd" clip-rule="evenodd" d="M17.9987 20.5008C17.7303 20.51 17.4627 20.4651 17.212 20.3687C16.9613 20.2723 16.7325 20.1264 16.5393 19.9398C16.3462 19.7531 16.1926 19.5295 16.0877 19.2822C15.9827 19.0349 15.9287 18.7691 15.9287 18.5004C15.9287 18.2318 15.9827 17.966 16.0877 17.7187C16.1926 17.4714 16.3462 17.2478 16.5393 17.0611C16.7325 16.8745 16.9613 16.7286 17.212 16.6322C17.4627 16.5358 17.7303 16.4909 17.9987 16.5001C18.5174 16.5178 19.0089 16.7363 19.3696 17.1095C19.7302 17.4828 19.9318 17.9815 19.9318 18.5004C19.9318 19.0194 19.7302 19.5181 19.3696 19.8913C19.0089 20.2645 18.5174 20.4831 17.9987 20.5008ZM5.99873 14.5008C5.73027 14.51 5.46271 14.4651 5.21199 14.3687C4.96126 14.2723 4.73251 14.1264 4.53935 13.9398C4.34619 13.7531 4.19258 13.5295 4.08766 13.2822C3.98275 13.0349 3.92868 12.7691 3.92868 12.5004C3.92868 12.2318 3.98275 11.966 4.08766 11.7187C4.19258 11.4714 4.34619 11.2478 4.53935 11.0611C4.73251 10.8745 4.96126 10.7286 5.21199 10.6322C5.46271 10.5358 5.73027 10.4909 5.99873 10.5001C6.51741 10.5178 7.00892 10.7363 7.36957 11.1095C7.73022 11.4828 7.93181 11.9815 7.93181 12.5004C7.93181 13.0194 7.73022 13.5181 7.36957 13.8913C7.00892 14.2645 6.51741 14.4831 5.99873 14.5008ZM17.9987 4.50239C18.2672 4.4932 18.5347 4.53814 18.7855 4.63453C19.0362 4.73093 19.2649 4.8768 19.4581 5.06346C19.6513 5.25012 19.8049 5.47375 19.9098 5.72103C20.0147 5.96831 20.0688 6.23417 20.0688 6.50278C20.0688 6.7714 20.0147 7.03726 19.9098 7.28454C19.8049 7.53182 19.6513 7.75545 19.4581 7.94211C19.2649 8.12877 19.0362 8.27464 18.7855 8.37104C18.5347 8.46743 18.2672 8.51237 17.9987 8.50318C17.48 8.48542 16.9885 8.26689 16.6279 7.89368C16.2672 7.52047 16.0656 7.02177 16.0656 6.50278C16.0656 5.98379 16.2672 5.4851 16.6279 5.11189C16.9885 4.73868 17.48 4.52015 17.9987 4.50239ZM17.9987 14.5008C16.7706 14.5008 15.6854 15.0657 14.9519 15.9376L9.94326 13.0477C9.96669 12.8672 9.99951 12.6891 9.99951 12.5016C9.99951 12.3891 9.97607 12.2836 9.96669 12.1735L15.0808 9.22036C15.4521 9.62436 15.903 9.94705 16.4052 10.1681C16.9075 10.3892 17.45 10.5038 17.9987 10.5047C18.7899 10.5047 19.5633 10.2702 20.2212 9.83065C20.8791 9.39114 21.3919 8.76644 21.6947 8.03553C21.9976 7.30462 22.077 6.50032 21.9228 5.7243C21.7686 4.94829 21.3878 4.23542 20.8285 3.67581C20.2692 3.11619 19.5566 2.73497 18.7807 2.58034C18.0048 2.4257 17.2004 2.50459 16.4693 2.80704C15.7382 3.1095 15.1132 3.62192 14.6733 4.27954C14.2334 4.93715 13.9984 5.71043 13.9979 6.50161C13.9979 6.83443 14.0519 7.15318 14.1269 7.46255L9.30341 10.2516C8.9151 9.68155 8.386 9.22157 7.76747 8.91631C7.14895 8.61105 6.46201 8.47089 5.77333 8.50943C5.08466 8.54797 4.41765 8.7639 3.83704 9.13626C3.25644 9.50863 2.78196 10.0248 2.45968 10.6346C2.13739 11.2444 1.97825 11.9272 1.99768 12.6167C2.01712 13.3062 2.21448 13.9789 2.57061 14.5696C2.92674 15.1603 3.42954 15.6489 4.0302 15.988C4.63086 16.327 5.30897 16.5051 5.99873 16.5047C7.29951 16.5024 8.44091 15.8719 9.17216 14.911L14.0753 17.7422C13.9184 18.5513 14.0152 19.389 14.3524 20.141C14.6896 20.893 15.2508 21.5225 15.9593 21.9434C16.6678 22.3644 17.489 22.5563 18.3107 22.4929C19.1324 22.4295 19.9144 22.1139 20.55 21.5892C21.1855 21.0645 21.6435 20.3564 21.8613 19.5616C22.0792 18.7668 22.0463 17.9241 21.7671 17.1487C21.488 16.3733 20.9761 15.703 20.3016 15.2295C19.6271 14.756 18.8228 14.5023 17.9987 14.5032V14.5008Z" fill="white"/>
</svg>
